<?xml version="1.0" standalone="no"?>
<!DOCTYPE svg PUBLIC "-//W3C//DTD SVG 20010904//EN"
 "http://www.w3.org/TR/2001/REC-SVG-20010904/DTD/svg10.dtd">
<svg version="1.0" xmlns="http://www.w3.org/2000/svg"
 width="1080.000000pt" height="1080.000000pt" viewBox="0 0 1080.000000 1080.000000"
 preserveAspectRatio="xMidYMid meet">

<g transform="translate(0.000000,1080.000000) scale(0.100000,-0.100000)"
fill="#000000" stroke="none">
<path d="M3245 6576 c-42 -18 -93 -79 -101 -121 -11 -60 4 -106 50 -151 72
-72 160 -72 232 0 67 67 72 154 11 223 -52 60 -125 78 -192 49z"/>
<path d="M4098 6570 c-81 -14 -160 -41 -230 -76 -81 -41 -98 -42 -146 -9 -51
35 -87 32 -128 -9 -39 -39 -42 -61 -14 -134 25 -65 26 -114 3 -135 -10 -8 -65
-29 -123 -46 -135 -40 -170 -56 -199 -93 -95 -119 -51 -275 97 -344 209 -97
202 -90 202 -210 0 -140 34 -168 194 -158 l105 7 173 -57 c296 -96 388 -155
388 -246 0 -59 -60 -96 -174 -107 -79 -7 -109 2 -381 122 -236 104 -326 135
-394 135 -86 0 -149 -64 -137 -139 21 -120 19 -145 -13 -220 -17 -40 -31 -87
-31 -105 0 -42 38 -106 76 -128 17 -10 107 -38 200 -63 93 -24 202 -54 243
-65 146 -39 251 -53 421 -54 190 -1 245 10 378 75 63 31 102 59 160 117 131
130 185 271 185 482 1 185 -45 317 -151 431 -65 71 -113 97 -312 169 -166 60
-318 129 -368 167 -65 49 -80 127 -33 174 27 27 35 29 105 29 94 0 182 -18
367 -76 134 -42 150 -45 188 -34 23 6 57 25 76 42 68 59 152 287 127 343 -22
48 -291 155 -502 200 -88 19 -285 28 -352 15z"/>
<path d="M4885 6557 c39 -13 81 -29 95 -36 35 -19 89 -71 106 -103 29 -56 8
-241 -36 -315 l-19 -33 165 0 165 0 -3 -692 c-3 -636 -5 -698 -22 -748 -20
-63 -69 -155 -99 -187 l-20 -23 204 0 c267 1 372 11 435 43 60 30 77 48 106
112 l23 50 3 723 3 722 183 0 c245 0 309 20 359 113 18 35 22 58 22 142 0 91
-2 104 -27 147 -22 36 -41 53 -85 75 l-58 28 -785 2 -785 2 70 -22z"/>
<path d="M2924 6326 c-38 -38 -43 -72 -17 -116 51 -87 183 -48 183 55 0 39
-59 95 -100 95 -23 0 -41 -9 -66 -34z"/>
<path d="M7529 6287 c-58 -22 -108 -68 -139 -131 -34 -67 -37 -109 -15 -184
19 -62 61 -113 123 -149 35 -21 59 -27 116 -28 l71 -2 72 -99 c40 -55 91 -136
114 -182 35 -69 41 -89 36 -124 -11 -82 -62 -121 -358 -278 -185 -98 -250
-140 -322 -208 -84 -81 -142 -157 -245 -323 -102 -163 -128 -194 -190 -221
-49 -22 -132 -26 -175 -9 -39 15 -61 70 -52 136 5 43 17 64 75 140 39 50 84
111 102 137 18 26 38 48 43 48 22 1 122 53 161 85 43 35 82 95 257 394 114
194 129 241 102 321 -21 63 -78 123 -138 143 -34 11 -42 18 -44 41 -4 54 -46
73 -82 37 -22 -22 -55 -152 -47 -186 8 -33 50 -44 76 -20 11 10 20 24 20 32 0
31 85 -15 107 -58 31 -60 19 -90 -147 -369 -32 -52 -69 -117 -85 -144 -40 -70
-92 -124 -149 -154 -44 -23 -63 -27 -141 -27 -102 0 -150 18 -218 83 -86 82
-95 125 -103 473 l-7 285 32 36 c32 37 68 50 114 41 20 -4 27 -11 27 -28 0
-37 32 -69 62 -62 29 8 39 29 64 130 16 67 16 69 -3 89 -25 24 -56 18 -78 -16
-14 -21 -19 -22 -63 -14 -89 18 -190 -32 -234 -114 -21 -40 -22 -55 -20 -198
3 -287 13 -464 28 -519 16 -55 50 -118 89 -161 17 -19 26 -51 40 -140 9 -63
21 -140 27 -170 6 -30 12 -95 13 -145 4 -142 38 -202 139 -240 35 -13 65 -16
128 -13 157 9 229 64 358 273 173 281 253 361 486 484 361 191 402 220 450
324 21 48 25 69 22 113 -6 70 -72 205 -167 338 l-70 100 28 32 c16 18 36 59
46 98 31 116 -3 205 -109 277 -42 29 -58 34 -120 36 -41 2 -86 -2 -107 -10z
m168 -107 c58 -35 85 -98 71 -166 -10 -48 -57 -101 -102 -112 -75 -21 -161 15
-184 76 -32 84 -21 134 41 187 35 30 48 35 91 35 33 0 62 -7 83 -20z m-1090
-1380 c31 0 28 -9 -28 -84 -49 -66 -53 -63 -66 40 l-9 72 39 -14 c22 -8 51
-14 64 -14z"/>
<path d="M7580 6081 c-25 -47 -2 -85 47 -79 38 4 55 49 28 78 -23 25 -61 26
-75 1z"/>
<path d="M2875 5986 c-42 -18 -93 -79 -101 -121 -11 -60 4 -106 50 -151 72
-72 160 -72 232 0 67 67 72 154 11 223 -52 60 -125 78 -192 49z"/>
<path d="M2961 5523 c-88 -31 -161 -136 -161 -233 0 -132 118 -250 250 -250
60 0 130 30 175 75 188 188 -12 497 -264 408z"/>
<path d="M2867 4922 c-33 -36 -8 -92 40 -92 25 0 53 30 53 57 0 46 -62 69 -93
35z"/>
<path d="M3054 4766 c-38 -38 -43 -72 -17 -116 51 -87 183 -48 183 55 0 39
-59 95 -100 95 -23 0 -41 -9 -66 -34z"/>
</g>
</svg>
